<svg id="Layer_1" data-name="Layer 1" xmlns="http://www.w3.org/2000/svg" viewBox="0 0 686.75 183.86"><defs><style>.cls-1{fill:#fff;}.cls-2{fill:#831d81;fill-rule:evenodd;}</style></defs><path class="cls-1" d="M686.75,139.58l-11.82-.08c-20.34-33.78-10.56-17.56-23.55-39.07L627.59,139.5H615.78l28.65-47.65a12.38,12.38,0,0,1,3-3.4,7.05,7.05,0,0,1,4.17-1.77,6.84,6.84,0,0,1,4.17,1.7,12.46,12.46,0,0,1,3,3.47ZM609.24,135c0,3.39-1.15,5.1-3.47,5.1-1.7,0-3.61-1.05-5.72-3.17l-33.82-34v36.61h-9.11V91.39a5.24,5.24,0,0,1,1-3.21A3.35,3.35,0,0,1,561,86.83q2.55,0,5.25,2.71l33.82,33.9V86.83h9.19Zm-61.16,4.56H534.49l-14.75-14.83H499.89v-9.11H524.6a15.37,15.37,0,0,0,8.58-2.24,8.44,8.44,0,0,0,3.93-7.49q0-9.89-12.51-9.89H494.48v43.56h-9.19V86.83h37.85c6.79,0,12.27,1.48,16.45,4.4q7.17,5,7.18,14.76a16.9,16.9,0,0,1-4.17,11.43,20.5,20.5,0,0,1-10.51,6.25ZM469.54,113.4a16.88,16.88,0,0,0-4.9-12.51A17.1,17.1,0,0,0,452.09,96H437.34A16.72,16.72,0,0,0,420,113.4a16.3,16.3,0,0,0,4.9,12.28,17.28,17.28,0,0,0,12.48,4.71h14.75a17.39,17.39,0,0,0,12.55-4.71A16.3,16.3,0,0,0,469.54,113.4Zm9.11-.77q0,11.66-7.49,19.3t-19.07,7.65H437.34q-11.5,0-19-7.65t-7.53-19.3q0-11.59,7.45-18.69t19.12-7.11h14.75q11.73,0,19.15,7.11T478.65,112.63Zm-83.33.77a16.85,16.85,0,0,0-4.9-12.51A17.1,17.1,0,0,0,377.87,96H363.12a16.74,16.74,0,0,0-17.38,17.38,16.27,16.27,0,0,0,4.91,12.28,17.26,17.26,0,0,0,12.47,4.71h14.75a17.37,17.37,0,0,0,12.55-4.71A16.26,16.26,0,0,0,395.32,113.4Zm9.12-.77q0,11.66-7.49,19.3t-19.08,7.65H363.12q-11.5,0-19-7.65t-7.53-19.3q0-11.59,7.46-18.69t19.11-7.11h14.75q11.75,0,19.15,7.11T404.44,112.63Zm-73.22-6.8a17.38,17.38,0,0,1-6.33,14q-5.86,4.93-14.75,4.94H286.9v-9.11h24.71a11.22,11.22,0,0,0,7.64-2.7,9.08,9.08,0,0,0,3.09-7.19,8.84,8.84,0,0,0-3.09-7.1A11.38,11.38,0,0,0,311.61,96H281.49v43.56H272.3V86.83h37.84a22.11,22.11,0,0,1,14.75,5A17.35,17.35,0,0,1,331.22,105.83Zm-62.4,33.75L257,139.5c-20.34-33.78-10.56-17.56-23.56-39.07L209.67,139.5H197.85L226.5,91.85a12.59,12.59,0,0,1,3-3.4,7.05,7.05,0,0,1,4.17-1.77,6.81,6.81,0,0,1,4.17,1.7,12.32,12.32,0,0,1,3,3.47ZM193.15,135q0,5.1-3.48,5.1-2.55,0-5.71-3.17l-33.83-34v36.61H141V91.39a5.24,5.24,0,0,1,1-3.21,3.35,3.35,0,0,1,2.86-1.35q2.55,0,5.25,2.71L184,123.44V86.83h9.19ZM128,135c0,3.4-1.15,5.1-3.47,5.1q-2.55,0-5.72-3.17L85,103v36.61H75.91V91.39a5.25,5.25,0,0,1,1-3.21,3.35,3.35,0,0,1,2.86-1.35q2.55,0,5.25,2.71l33.82,33.9V86.83H128ZM71,139.58l-11.81-.08C38.82,105.72,48.6,121.94,35.6,100.43L11.82,139.5H0L28.65,91.85a12.54,12.54,0,0,1,3-3.4,7.19,7.19,0,0,1,4.17-1.77A6.78,6.78,0,0,1,40,88.38a12.07,12.07,0,0,1,3,3.47Z"/><path class="cls-1" d="M519.22,183.86H500.54V162.2h3.78v17.89h14.9Zm-27.09,0-4.85,0-3.65-6.06H473.35l2.29-3.74h5.74l-3.78-6.25-9.77,16.05H463l11.77-19.57a5.17,5.17,0,0,1,1.23-1.4,3,3,0,0,1,1.72-.72,2.81,2.81,0,0,1,1.71.69,5.12,5.12,0,0,1,1.24,1.43ZM461.1,166h-8.53v17.89h-3.74V166h-8.57V162.2H461.1Zm-32.2,17.89h-3.77V162.2h3.77ZM414.27,170a7.15,7.15,0,0,1-2.6,5.74,9.06,9.06,0,0,1-6.06,2h-9.55V174h10.15a4.58,4.58,0,0,0,3.14-1.11,3.71,3.71,0,0,0,1.27-2.95,3.62,3.62,0,0,0-1.27-2.92,4.66,4.66,0,0,0-3.14-1.08H393.84v17.89h-3.77V162.2h15.54a9,9,0,0,1,6.06,2.06A7.09,7.09,0,0,1,414.27,170Zm-34.64,7.17a6.2,6.2,0,0,1-2.19,5,7.93,7.93,0,0,1-5.24,1.74H355.68v-3.77H372.2a5,5,0,0,0,2.7-.7,2.63,2.63,0,0,0,1.3-2.31,2.49,2.49,0,0,0-1.33-2.26,5.13,5.13,0,0,0-2.67-.66H362a7.23,7.23,0,0,1-4.73-1.56,5.84,5.84,0,0,1,0-8.85A7.28,7.28,0,0,1,362,162.2h16.34V166H362a2.83,2.83,0,0,0-1.84.61,1.94,1.94,0,0,0-.76,1.61,1.9,1.9,0,0,0,.76,1.62,3,3,0,0,0,1.84.57H372.2a7.71,7.71,0,0,1,5.24,1.81A6.29,6.29,0,0,1,379.63,177.17ZM342,173.11a6.94,6.94,0,0,0-2-5.14,7,7,0,0,0-5.16-2H328.8a6.86,6.86,0,0,0-7.13,7.14,6.68,6.68,0,0,0,2,5,7.09,7.09,0,0,0,5.12,1.94h6.06a7.14,7.14,0,0,0,5.16-1.94A6.68,6.68,0,0,0,342,173.11Zm3.74-.32a10.85,10.85,0,0,1-3.07,7.93,10.49,10.49,0,0,1-7.84,3.14H328.8a10.5,10.5,0,0,1-7.82-3.14,10.83,10.83,0,0,1-3.09-7.93,10.1,10.1,0,0,1,3.06-7.67,10.91,10.91,0,0,1,7.85-2.92h6.06a10.88,10.88,0,0,1,7.87,2.92A10.12,10.12,0,0,1,345.77,172.79Zm-56.91,11.07h-3.77V162.2h3.77Zm18.21,0H303.3v-9H290.58v-3.77H303.3V162.2h3.77Zm-56.43,0H231.93V162.2h18.71V166H235.7v14.12h14.94Zm-1-9.1H237.29V171h12.37Zm-28-12.56-10.75,14.49v7.17h-3.74v-7.23l-11-14.43H201l8.15,10.66,7.65-10.66Zm-35.4,21.66H167.52V162.2h18.72V166H171.3v14.12h14.94Zm-1-9.1H172.88V171h12.37Z"/><path class="cls-1" d="M347.45,72.43a42.54,42.54,0,0,1-12-1.77,30.26,30.26,0,0,1-21.8-24.83C312,34.5,316.74,23.76,326,17.82a27.67,27.67,0,0,1,14.85-3.88,4,4,0,0,1,1.09.05,18,18,0,0,1,2.45.24,11.77,11.77,0,0,1,2.43.51,11.64,11.64,0,0,1,1.77.64,22,22,0,1,1-18.41,39.8,20.57,20.57,0,0,0,7.33,4.47,29.7,29.7,0,0,0,23.79-2.28c5.66-3.29,12.06-11.06,13.64-21S373,16.3,364.7,7.07l1.87-2,4.57,3.72c5.71,4.65,9.83,8,17.62,13.91a114.23,114.23,0,0,0,18.88,11.5l2.79,1.28-2.82,1.2a79.07,79.07,0,0,0-17.32,10.6c-1.15,1-2.64,2.44-4.36,4.14-5.05,5-12.69,12.56-21.77,17.06A37.23,37.23,0,0,1,347.45,72.43Zm-6.84-55.78a24.73,24.73,0,0,0-13.18,3.45c-8.32,5.36-12.55,15.07-11.06,25.34a27.53,27.53,0,0,0,19.87,22.61c9.37,2.75,18.61,2.08,26.72-2,8.68-4.3,15.84-11.39,21.07-16.56,1.76-1.74,3.28-3.24,4.51-4.28a78.45,78.45,0,0,1,15.4-9.81,118.51,118.51,0,0,1-16.82-10.53c-6.14-4.66-10-7.74-14.17-11.11,5.21,9.1,5.54,17.23,4.63,23-1.72,10.83-8.75,19.33-14.95,22.93a32.56,32.56,0,0,1-26.08,2.49,22.75,22.75,0,0,1-14.05-14l-.1-.3c-.07-.22-.13-.42-.17-.61l-1.14-6.72,3.63,5.77a19.31,19.31,0,1,0,22.81-28.46,12.61,12.61,0,0,0-1.54-.55,9.74,9.74,0,0,0-2-.42,19.65,19.65,0,0,0-2.35-.23c-.31,0-.44,0-.62,0Z"/><path class="cls-1" d="M318.64,66.7S304.92,55.37,296.4,48.51a125.61,125.61,0,0,0-18.69-12l-2.79-1.42L277.87,34A69.58,69.58,0,0,0,295,24.45c1.2-.94,2.67-2.24,4.38-3.74,10-8.79,28.49-25.15,48.8-19.58,10,2.74,17.61,9.17,21.48,18.11,4.32,10,3.27,21.37-2.67,29.06a29.73,29.73,0,0,1-12.06,9.05l-1.09-2.48c4.68-2.35,8.69-7.55,10.24-11.49,4-10.22.64-20.41-9-27.25-8.59-6.1-20.11-6.31-30.08-.56C319,19,312.33,26.9,310.73,36.86c-1.51,9.39,1.87,19,9.78,27.89ZM281.52,35.46A123,123,0,0,1,298.1,46.4c4.22,3.39,9.7,7.88,14.18,11.55a32.77,32.77,0,0,1-4.22-21.52C309.8,25.59,317.12,17,323.6,13.22c10.9-6.28,23.55-6,33,.7,10.32,7.32,14.15,18.14,10.42,29.15,3.29-6.63,3.4-15.14.1-22.76-3.53-8.16-10.54-14-19.71-16.57-18.88-5.18-36.72,10.55-46.29,19-1.75,1.55-3.27,2.88-4.5,3.84A71.22,71.22,0,0,1,281.52,35.46Z"/><path class="cls-2" d="M407.08,35.48a80.05,80.05,0,0,0-17.67,10.81c-4.66,3.93-13.93,15.11-25.85,21a37.62,37.62,0,0,1-27.7,2c-24.14-7-28.17-38.14-9.17-50.39A26.17,26.17,0,0,1,340.8,15.3H341a4.93,4.93,0,0,1,.67,0,18.57,18.57,0,0,1,2.42.23,10.26,10.26,0,0,1,2.25.48,9.86,9.86,0,0,1,1.61.57,20.65,20.65,0,1,1-24.41,30.45c0,.2.14.44.2.67,6.25,17.06,27,17.39,38.18,10.81s24.54-29.11,3.76-52.38c8.53,6.92,12.52,10.31,22.23,17.66A114.6,114.6,0,0,0,407.08,35.48Z"/><path class="cls-2" d="M319.5,65.65s-13.72-11.33-22.25-18.19a125.62,125.62,0,0,0-18.92-12.17,71,71,0,0,0,17.47-9.77c8.21-6.45,29-29.4,52-23.08C358.19,5.29,365,12,368.38,19.77c4,9.35,3.28,20.21-2.5,27.71a28.35,28.35,0,0,1-11.47,8.6c5.19-2.6,9.31-8.18,10.89-12.2,4.73-12.06-.57-22.54-9.48-28.86-9.23-6.55-21.35-6.51-31.54-.63-10.81,6.24-25.57,28-4.78,51.26"/></svg>