<svg id="Layer_1" data-name="Layer 1" xmlns="http://www.w3.org/2000/svg" viewBox="0 0 253.33 66.83"><defs><style>.cls-1{fill:#1a1a18;}.cls-2{fill:#831d81;fill-rule:evenodd;}</style></defs><path class="cls-1" d="M253.33,50.49l-4.35,0c-7.51-12.46-3.9-6.48-8.69-14.41l-8.78,14.41h-4.36l10.57-17.57a4.66,4.66,0,0,1,1.11-1.26,2.62,2.62,0,0,1,1.54-.65,2.54,2.54,0,0,1,1.54.62A4.4,4.4,0,0,1,243,32.89Zm-28.59-1.68c0,1.25-.42,1.88-1.28,1.88a3.25,3.25,0,0,1-2.11-1.17L208.88,37v13.5h-3.37V32.72a1.94,1.94,0,0,1,.38-1.19,1.22,1.22,0,0,1,1.05-.5,2.87,2.87,0,0,1,1.94,1l12.47,12.51V31h3.39Zm-22.56,1.68h-5L191.73,45h-7.32V41.66h9.11a5.64,5.64,0,0,0,3.16-.83,3.08,3.08,0,0,0,1.46-2.76q0-3.65-4.62-3.64H182.41V50.49H179V31h14a10.35,10.35,0,0,1,6.07,1.63,6.23,6.23,0,0,1,2.65,5.44,6.25,6.25,0,0,1-1.54,4.22,7.53,7.53,0,0,1-3.88,2.3Zm-29-9.66a6.2,6.2,0,0,0-1.81-4.61,6.29,6.29,0,0,0-4.63-1.79h-5.44a6.16,6.16,0,0,0-6.41,6.4,6,6,0,0,0,1.81,4.53,6.36,6.36,0,0,0,4.6,1.74h5.44a6.41,6.41,0,0,0,4.63-1.74A6,6,0,0,0,173.21,40.83Zm3.36-.28a9.76,9.76,0,0,1-2.76,7.12,9.43,9.43,0,0,1-7,2.82h-5.44a9.43,9.43,0,0,1-7-2.82,9.73,9.73,0,0,1-2.78-7.12,9.08,9.08,0,0,1,2.75-6.89A9.79,9.79,0,0,1,161.33,31h5.44a9.8,9.8,0,0,1,7.07,2.63A9.1,9.1,0,0,1,176.57,40.55Zm-30.74.28A6.2,6.2,0,0,0,144,36.22a6.27,6.27,0,0,0-4.63-1.79H134a6.16,6.16,0,0,0-6.41,6.4,6,6,0,0,0,1.81,4.53A6.37,6.37,0,0,0,134,47.1h5.44A6.4,6.4,0,0,0,144,45.36,6,6,0,0,0,145.83,40.83Zm3.36-.28a9.76,9.76,0,0,1-2.76,7.12,9.43,9.43,0,0,1-7,2.82H134a9.43,9.43,0,0,1-7-2.82,9.73,9.73,0,0,1-2.78-7.12,9.08,9.08,0,0,1,2.75-6.89A9.79,9.79,0,0,1,134,31h5.44a9.79,9.79,0,0,1,7.07,2.63A9.1,9.1,0,0,1,149.19,40.55Zm-27-2.51a6.41,6.41,0,0,1-2.34,5.16A8.18,8.18,0,0,1,114.41,45h-8.58V41.66H115a4.11,4.11,0,0,0,2.82-1A3.33,3.33,0,0,0,118.91,38a3.27,3.27,0,0,0-1.14-2.62,4.23,4.23,0,0,0-2.82-1H103.84V50.49h-3.39V31h14a8.12,8.12,0,0,1,5.44,1.86A6.39,6.39,0,0,1,122.19,38Zm-23,12.45-4.36,0C87.31,38,90.91,44,86.12,36.05L77.34,50.46H73L83.56,32.89a4.5,4.5,0,0,1,1.11-1.26A2.58,2.58,0,0,1,86.2,31a2.54,2.54,0,0,1,1.54.62,4.4,4.4,0,0,1,1.11,1.29ZM71.25,48.81c0,1.26-.43,1.88-1.28,1.88a3.22,3.22,0,0,1-2.11-1.17L55.38,37v13.5H52V32.72a1.94,1.94,0,0,1,.37-1.19,1.25,1.25,0,0,1,1-.5,2.85,2.85,0,0,1,1.94,1L67.86,44.54V31h3.39Zm-24,0c0,1.26-.42,1.88-1.28,1.88a3.25,3.25,0,0,1-2.11-1.17L31.37,37v13.5H28V32.72a2,2,0,0,1,.37-1.19,1.25,1.25,0,0,1,1.06-.5,2.87,2.87,0,0,1,1.94,1L43.84,44.54V31h3.39Zm-21,1.68-4.36,0C14.32,38,17.93,44,13.13,36.05L4.36,50.46H0L10.57,32.89a4.66,4.66,0,0,1,1.11-1.26A2.67,2.67,0,0,1,13.22,31a2.57,2.57,0,0,1,1.54.62,4.72,4.72,0,0,1,1.11,1.29Z"/><path class="cls-1" d="M191.54,66.83h-6.89v-8H186v6.6h5.5Zm-10,0h-1.79l-1.34-2.24h-3.8l.85-1.38h2.12l-1.4-2.3-3.6,5.92h-1.79l4.34-7.22a1.85,1.85,0,0,1,.46-.52.88.88,0,0,1,1.26,0,1.8,1.8,0,0,1,.46.53Zm-11.44-6.6H167v6.6h-1.38v-6.6h-3.16V58.84h7.69Zm-11.88,6.6h-1.4v-8h1.4Zm-5.4-5.11a2.63,2.63,0,0,1-1,2.11,3.34,3.34,0,0,1-2.23.75H146.1V63.2h3.75a1.73,1.73,0,0,0,1.16-.41,1.37,1.37,0,0,0,.47-1.09,1.33,1.33,0,0,0-.47-1.07,1.72,1.72,0,0,0-1.16-.4h-4.56v6.6h-1.4v-8h5.74a3.3,3.3,0,0,1,2.23.76A2.6,2.6,0,0,1,152.82,61.72ZM140,64.36a2.28,2.28,0,0,1-.81,1.83,3,3,0,0,1-1.93.64h-6.09V65.44h6.09a1.91,1.91,0,0,0,1-.26,1,1,0,0,0,.48-.86,1,1,0,0,0-.49-.83,2,2,0,0,0-1-.24h-3.77a2.63,2.63,0,0,1-1.74-.58,2.15,2.15,0,0,1,0-3.26,2.68,2.68,0,0,1,1.74-.57h6v1.39h-6a1,1,0,0,0-.67.22.72.72,0,0,0-.28.6.71.71,0,0,0,.28.6,1.07,1.07,0,0,0,.67.21h3.77a2.86,2.86,0,0,1,1.93.66A2.32,2.32,0,0,1,140,64.36Zm-13.87-1.5a2.53,2.53,0,0,0-2.64-2.63h-2.24a2.53,2.53,0,0,0-2.63,2.63,2.46,2.46,0,0,0,.74,1.86,2.62,2.62,0,0,0,1.89.72h2.24a2.63,2.63,0,0,0,1.9-.72A2.46,2.46,0,0,0,126.17,62.86Zm1.38-.12a4,4,0,0,1-1.13,2.93,3.89,3.89,0,0,1-2.89,1.16h-2.24a3.88,3.88,0,0,1-2.88-1.16,4,4,0,0,1-1.14-2.93,3.71,3.71,0,0,1,1.13-2.83,4,4,0,0,1,2.89-1.07h2.24a4.06,4.06,0,0,1,2.9,1.07A3.74,3.74,0,0,1,127.55,62.74Zm-21,4.09h-1.39v-8h1.39Zm6.72,0h-1.4V63.51h-4.69v-1.4h4.69V58.84h1.4Zm-20.82,0h-6.9v-8h6.9v1.39H87v5.21h5.51Zm-.36-3.36H87.53V62.08H92.1ZM81.76,58.84l-4,5.34v2.65H76.41V64.16l-4.07-5.32h1.79l3,3.93L80,58.84Zm-13.06,8H61.8v-8h6.9v1.39H63.19v5.21H68.7Zm-.36-3.36H63.78V62.08h4.56Z"/><path class="cls-2" d="M150.41,12.59a29.23,29.23,0,0,0-6.51,4c-1.72,1.45-5.14,5.57-9.54,7.75a13.9,13.9,0,0,1-10.22.76c-8.9-2.6-10.39-14.07-3.38-18.59A9.64,9.64,0,0,1,126,5.15h.34a6.26,6.26,0,0,1,.89.08,3.84,3.84,0,0,1,.83.18,3.42,3.42,0,0,1,.59.21,7.62,7.62,0,1,1-9,11.23c0,.08,0,.16.07.25,2.31,6.29,9.95,6.42,14.09,4s9-10.74,1.38-19.32c3.15,2.55,4.62,3.8,8.2,6.51A43.13,43.13,0,0,0,150.41,12.59Z"/><path class="cls-2" d="M118.11,23.72s-5.06-4.18-8.21-6.71a46.59,46.59,0,0,0-7-4.49,26.3,26.3,0,0,0,6.44-3.6c3-2.38,10.69-10.85,19.18-8.52a11.29,11.29,0,0,1,7.6,6.4A10.26,10.26,0,0,1,135.22,17,10.48,10.48,0,0,1,131,20.19a9.24,9.24,0,0,0,4-4.5c1.75-4.45-.21-8.32-3.49-10.65a10.71,10.71,0,0,0-11.64-.23c-4,2.3-9.43,10.32-1.76,18.91"/></svg>