<svg id="Layer_1" data-name="Layer 1" xmlns="http://www.w3.org/2000/svg" viewBox="0 0 152.17 90.1"><defs><style>.cls-1{fill:#831d81;}</style></defs><path class="cls-1" d="M19.56,63.64c-7.07-3.55-13.33-7.91-16-15.8,8-8,16.81-14.68,27.62-18.3a61.18,61.18,0,0,1,22.28-2.8,60,60,0,0,1,14.47,2.07,44.74,44.74,0,0,1,15.64,8.75A25.62,25.62,0,0,0,89,41.22a21.88,21.88,0,0,1,6.66,5c1,1.05.6,2.54-.77,2.7a2.37,2.37,0,0,1-1.61-.73A23.8,23.8,0,0,0,85,42.75a22.85,22.85,0,1,0-9.54,44.16,22.3,22.3,0,0,0,15.14-4.5c.23-.17.45-.36.69-.52a1.56,1.56,0,0,1,2.18.28,1.49,1.49,0,0,1-.3,2.17,35.21,35.21,0,0,1-3.76,2.52A25.93,25.93,0,0,1,51.7,70.48c-.18-.72-.47-.88-1.17-.87A74.1,74.1,0,0,1,23,65.07c-.61-.23-1-.44-1-1.25a1.21,1.21,0,0,0-.81-.91,4.12,4.12,0,0,0-1.5.41ZM38,31a5.18,5.18,0,0,0-.63,0,52.94,52.94,0,0,0-13.13,4.82A77.3,77.3,0,0,0,8.35,47.46c-1.3,1.19-1.29,1.18-.37,2.73A25.21,25.21,0,0,0,17.39,59a56.46,56.46,0,0,0,19.72,6.63c.49.08,1,.13,1.49.19C31.81,62,27.18,56.71,27,48.66S31.09,35,38,31Zm8,10.49c.28-.07.5-.11.7-.18s.38-.16.57-.25a2.16,2.16,0,0,1-.29.71c-.7.76-1.5,1.44-2.16,2.24a6.78,6.78,0,0,0-.27,8A6.51,6.51,0,0,0,52,54.55a1.91,1.91,0,0,0,1.17-1c.95-1.73,2-3.4,3-5.1a1.86,1.86,0,0,0,.32-.94,6.53,6.53,0,0,0-5.08-5.83,22.79,22.79,0,0,0-3.15-.19c-.08-.68-.3-1.38-1.27-1.3C46.31,40.21,45.91,40.57,46,41.48Zm33.27-3.24a37,37,0,0,0-19.78-7.85.29.29,0,0,0,.19.17,21.8,21.8,0,0,1,9.51,8.32.69.69,0,0,0,.62.24A28.15,28.15,0,0,1,79.27,38.24ZM60.15,43.92a4.41,4.41,0,0,0-1.51-8.49,4,4,0,0,0-3.87,2.65A7.24,7.24,0,0,1,60.15,43.92Z"/><path class="cls-1" d="M114.63,44.66l-4.76-4.35c-.11-.09-.27-.24-.25-.33.23-1.57.17-3.13,1.44-4.47,4.36-4.6,8.59-9.32,12.86-14,.14-.15.27-.3.43-.21l2.38.24c0-.88,0-1.66,0-2.44a1.49,1.49,0,0,1,.23-.88c2.71-3,5.43-6,8.25-9.06.25.76.47,1.41.67,2.05,1.1,3.47,2.18,6.93,3.29,10.39a1.23,1.23,0,0,1-.27,1.4q-8.15,8.85-16.25,17.75a8.74,8.74,0,0,1-6.17,2.83C115.88,43.62,115.31,44.25,114.63,44.66Z"/><path class="cls-1" d="M107.64,42c1.82,1.66,3.57,3.24,5.28,4.85a1.21,1.21,0,0,1,.34.82c0,1.46-.1,2.91-.19,4.36a1.14,1.14,0,0,1-.27.69c-3.57,3.78-6.78,7.91-10.92,11.13a46.51,46.51,0,0,1-14,8,22.76,22.76,0,0,1-5,.82,2.91,2.91,0,0,1-2.47-1Z"/><path class="cls-1" d="M0,38a95.91,95.91,0,0,1,12.11-9.12,85.75,85.75,0,0,1,26-11.48c10.67-2.58,21.25-2.58,31.67,1.24.84.31,1.67.68,2.48,1a3.33,3.33,0,0,0,0,1.16,1.16,1.16,0,0,0,.69.71,5.53,5.53,0,0,0,1.43-.08l.23-.72A47.85,47.85,0,0,1,92.09,35.88c-.16-.13-.33-.25-.49-.39A55,55,0,0,0,59.7,21.2c-12.19-1.35-23.92.73-35.37,4.79A122.58,122.58,0,0,0,.65,37.59Z"/><path class="cls-1" d="M146.43,14.75c-.8-2.54-1.55-4.88-2.29-7.23-.57-1.8-1.1-3.6-1.71-5.39a.79.79,0,0,1,.38-1.07,5.92,5.92,0,0,1,7.51.62,6.17,6.17,0,0,1,.76,7.89,11.53,11.53,0,0,1-.84,1C149,11.93,147.79,13.27,146.43,14.75Z"/><path class="cls-1" d="M140.09,3.84l2.66,8.34c.45,1.41.86,2.83,1.34,4.22a1,1,0,0,1-.28,1.23c-.74.74-1.42,1.53-2.18,2.37a5.07,5.07,0,0,1-.26-.57c-1.27-4-2.51-8-3.8-11.94a1.06,1.06,0,0,1,.28-1.23C138.58,5.53,139.27,4.74,140.09,3.84Z"/></svg>