<svg id="Layer_1" data-name="Layer 1" xmlns="http://www.w3.org/2000/svg" viewBox="0 0 94.37 94.33"><defs><style>.cls-1{fill:#831d81;}</style></defs><path class="cls-1" d="M29.21,59.07a29.27,29.27,0,0,0,6.26,4.19,29.86,29.86,0,0,0,10.48,3A29.29,29.29,0,0,0,60.17,64,29,29,0,0,0,69,58.13a29.13,29.13,0,0,0,9-18.46,29.7,29.7,0,0,0-5.28-19.8A29.61,29.61,0,0,0,40,8.69,28.68,28.68,0,0,0,29,14.86,29.84,29.84,0,0,0,22.12,24a29.06,29.06,0,0,0-2.61,8.2,10.88,10.88,0,0,1-2.73,5.68c-1.46,1.65-2.91,3.31-4.23,5.06a28,28,0,0,0-3.76,6.82,52.53,52.53,0,0,0-2.22,6.66,33.78,33.78,0,0,0-.75,6.27c-.1,2.27.11,4.54.1,6.81,0,1.84-.06,3.69-.21,5.52a3.77,3.77,0,0,0,1.23,3.11.8.8,0,0,0,1.4-.25,16.8,16.8,0,0,0,.42-2.79c.05-3.17.05-6.35,0-9.52a36.17,36.17,0,0,1,.6-8.18A36.2,36.2,0,0,1,18.8,40.08a12.6,12.6,0,0,0,3.52-6.56c.31-1.5.62-3,1.05-4.49a23.91,23.91,0,0,1,4.55-8.67,26.62,26.62,0,0,1,28.66-8.79,26.25,26.25,0,0,1,7.74,3.91,25.21,25.21,0,0,1,5.23,5c1.18,1.54,2,3.35,3.06,5,.4.62.3.95-.24,1.43A12.89,12.89,0,0,0,68.05,39a12.68,12.68,0,0,0,4.6,8.06.51.51,0,0,1,.16.73,28.33,28.33,0,0,1-3.81,6A27,27,0,0,1,59.57,61a24.84,24.84,0,0,1-8.39,2.26,27,27,0,0,1-9-.69A26.06,26.06,0,0,1,31.91,57.4a9.73,9.73,0,0,0-5.56-2.67A8.06,8.06,0,0,0,18.58,59a31.05,31.05,0,0,0-2.85,8.18c-.26,1.16-.48,2.32-.73,3.48-.1.5.11.69.61.7a6.56,6.56,0,0,1,1.07.15c0,.1,0,.2,0,.3h-1.2c-.57,0-.82.3-.59.83a6.13,6.13,0,0,0,.38.63c-.82,0-.88.57-1,1-.29,1.12-.54,2.26-.82,3.38a28.64,28.64,0,0,1-3.75,8.68,10.27,10.27,0,0,1-5.91,4.75,9,9,0,0,0-1.52.51,1.37,1.37,0,0,0-.72,1.58,1.41,1.41,0,0,0,1.32,1.13A4.88,4.88,0,0,0,4,94.12,12.09,12.09,0,0,0,9.71,91a25.79,25.79,0,0,0,5.57-9.31,61.68,61.68,0,0,0,2.4-9.06c.43-2,.81-4,1.23-6a24.47,24.47,0,0,1,2.16-6A5.06,5.06,0,0,1,29.21,59.07Zm41.63-21.8a10.2,10.2,0,0,1,3.25-7.9,26.41,26.41,0,0,1,0,15A10.16,10.16,0,0,1,70.84,37.27Z"/><path class="cls-1" d="M92.8,30.28A14.91,14.91,0,0,0,86,23.59,12.1,12.1,0,0,1,80.94,19a43.25,43.25,0,0,0-4.66-6.5,36,36,0,0,0-14-9.89A36.73,36.73,0,0,0,48.77,0C48,0,47.64.52,47.1.78c-.17.08-.15.51-.25.76,0,.1-.17.17-.25.25-.07-.09-.19-.18-.21-.29-.07-.54,0-1,.62-1.29L46.91,0c-.89.09-1.77.15-2.65.26A35.9,35.9,0,0,0,35,2.67a37.26,37.26,0,0,0-20.33,20,33,33,0,0,0-2.55,9.56c-.15,1.47-.19,3-.22,4.43a1.25,1.25,0,0,0,1.17,1.16c1.06.1,1.7-.54,1.78-1.7.11-1.56.23-3.13.42-4.69a28.36,28.36,0,0,1,2.05-7.33,33.52,33.52,0,0,1,6-9.58A33.18,33.18,0,0,1,36,5.49a40.44,40.44,0,0,1,5.84-1.74C43.51,3.37,45.26,3.3,47,3A3.88,3.88,0,0,0,48.3,2.5c.13-.08.06-.46.14-.68s.19-.2.29-.3c.09.11.25.22.25.34a7.44,7.44,0,0,1-.09,1.05c1.41.13,2.82.26,4.22.41A30.59,30.59,0,0,1,61.47,5.5a33.36,33.36,0,0,1,8.06,4.69,32.09,32.09,0,0,1,8.15,9.22,17.34,17.34,0,0,0,7.19,7,11.48,11.48,0,0,1,6.51,10,12.41,12.41,0,0,1-.63,4.16,10.8,10.8,0,0,1-5.4,6.6,19,19,0,0,0-5.39,4,14.19,14.19,0,0,0-2.31,3.47l.4-.13.41,1,.27.66-.62-.39-.93-.53a2.43,2.43,0,0,0-.14.2l1,1.28c-1.22,1.12-1.22,1.12-2.11.43a3.89,3.89,0,0,1,0,1.41.92.92,0,0,1-1.37.38A3.76,3.76,0,0,1,74,60a4.13,4.13,0,0,1-1.09.55l.17.07c0,.35,0,.81-.16,1s-.7.21-1,.32a1.82,1.82,0,0,0-.67.27,34.45,34.45,0,0,1-5.58,4c-.56.32-1.06.73-1.59,1.1l.1.12-.74,0-.07.15.63.3a8.85,8.85,0,0,0-1.51,1.48,3.44,3.44,0,0,0-.49-.76.73.73,0,0,0-.62-.22c-.87.27-1.71.69-2.59.9a60,60,0,0,1-6.58,1.35,32.47,32.47,0,0,1-9.28-.31,33.74,33.74,0,0,1-10.23-3.52,33,33,0,0,1-7.33-5.3,1.6,1.6,0,0,0-2.34-.1,1.54,1.54,0,0,0,.26,2.26A37.3,37.3,0,0,0,35,71.1a37.18,37.18,0,0,0,26.84.22,36.42,36.42,0,0,0,9.78-5.59,37.2,37.2,0,0,0,9-10.49,12.28,12.28,0,0,1,5.15-4.92,15.84,15.84,0,0,0,6.37-5.64,3.77,3.77,0,0,0,.28-.84,2.43,2.43,0,0,1,.29-.61c.09-.13.32-.2.37-.34a25.91,25.91,0,0,0,1.15-4.06A14.33,14.33,0,0,0,92.8,30.28Z"/><path class="cls-1" d="M25,38.64c-2.44,2.17-5,4.2-7.39,6.42a19,19,0,0,0-5.76,11.12,33.39,33.39,0,0,0,0,8.82,1.54,1.54,0,0,0,1.65,1.34,1.51,1.51,0,0,0,1.32-1.65c-.1-1.21-.26-2.42-.24-3.63a9.94,9.94,0,0,1,.4-3,8.5,8.5,0,0,1,6.25-5.61,17.64,17.64,0,0,1,10.22.48,20.35,20.35,0,0,1,7.36,4.15,1.48,1.48,0,1,0,1.93-2.24c-1.31-1-2.66-2-4-3,.46-.37,1-.83,1.53-1.23,1.87-1.34,3.9-1.95,6.13-1a33.62,33.62,0,0,1,3.38,1.73A1.54,1.54,0,0,0,49.86,51a1.48,1.48,0,0,0-.55-2.22,29.66,29.66,0,0,0-3.51-1.89,8.8,8.8,0,0,0-6.5-.27,14.63,14.63,0,0,0-5.24,3.48.93.93,0,0,1-1.08.23A22.49,22.49,0,0,0,27.29,49a17.71,17.71,0,0,0-7.78.81c-1,.34-1.86.81-2.82,1.23a19.86,19.86,0,0,1,4.73-5.55.88.88,0,0,1,.61-.09c1.48.14,2.95.38,4.43.42a25.7,25.7,0,0,0,8.11-1.14A17.16,17.16,0,0,0,41.45,41c.39-.36.61-.45,1.1-.09a7.15,7.15,0,0,0,4.7,1.5c.48,0,1,0,1.12-.71,0-.1.22-.17.39-.3l.17.61c1.29-.21,3.25-1.9,3.94-2.91a1.35,1.35,0,0,0-.07-1.64,1.57,1.57,0,0,0-2.53.12c-2,2.26-4.17,2.3-6.2.75a.63.63,0,0,1-.25-.79,13.6,13.6,0,0,0,.38-2.1,1.35,1.35,0,0,0-1.33-1.53,1.48,1.48,0,0,0-1.57,1.33,7.33,7.33,0,0,1-.23,1.24,7.65,7.65,0,0,1-3.38,3.66c-.33.22-.57.12-.77-.2a3.77,3.77,0,0,1-.28-3.35A15.86,15.86,0,0,1,39.41,32a1.56,1.56,0,0,0-.13-2.17,1.44,1.44,0,0,0-2.09.24,24.64,24.64,0,0,0-1.79,2.41,10.28,10.28,0,0,0-1.92,4.86,6.28,6.28,0,0,0,1,4.28,23.89,23.89,0,0,1-9.62,1.15c.21-.24.31-.37.43-.49,1.36-1.31,2.83-2.52,4.06-3.94a13,13,0,0,0,3.1-8.84,1.45,1.45,0,0,0-1-1.41,1.34,1.34,0,0,0-1.66.54A3.84,3.84,0,0,0,29.48,30c-.16,1-.28,2-.43,3.14-.37-.2-.56-.29-.75-.41-.83-.51-1.66-1-2.51-1.53a1.48,1.48,0,0,0-1.5,2.56c.24.16.5.29.75.44l2.64,1.68C26.73,36.83,25.91,37.8,25,38.64Z"/><path class="cls-1" d="M80.12,44.6A1.6,1.6,0,0,0,80,46.72a1.53,1.53,0,0,0,2.21,0c.5-.51,1-1,1.44-1.58a13.31,13.31,0,0,0,3.39-8.78,15.92,15.92,0,0,0-.53-2.71,16.17,16.17,0,0,0-4.22-6.46A1.49,1.49,0,0,0,80.06,27a1.67,1.67,0,0,0,.13,2.28,28.09,28.09,0,0,1,2.62,3.36,7.78,7.78,0,0,1,.34,7.87A17.42,17.42,0,0,1,80.12,44.6Z"/><path class="cls-1" d="M7.13,81.55c.36-.8.62-1.65.92-2.48l-.25.06c-.35-.25-.73-.46-1-.74s-.6-.66-.92-1c-.09-.09-.29-.06-.44-.08,0,.46-.23,1.07,0,1.37.77,1,.47,2.14-.83,2.34a1.22,1.22,0,0,0-.89.68c-.48.75-1,1.51-1.49,2.21S1.06,85.22.5,85.84a1.54,1.54,0,0,0-.32,1.83,1.51,1.51,0,0,0,2.58.15A22.17,22.17,0,0,0,7.13,81.55Z"/><path class="cls-1" d="M77.38,56.73a3.94,3.94,0,0,0-.52-.87c-.23.3-.52.53-.48.65a2.57,2.57,0,0,0,.53.67C77.08,57,77.4,56.84,77.38,56.73Z"/><path class="cls-1" d="M5.36,79.69c.06-.11-.16-.37-.25-.57l-.18,0-.51,1.16.26.19A4.36,4.36,0,0,0,5.36,79.69Z"/><path class="cls-1" d="M75.43,58.53a2.93,2.93,0,0,0,.22-.67l-.34-.11c-.11.25-.22.5-.34.75C75.13,58.51,75.39,58.59,75.43,58.53Z"/></svg>