<svg id="Layer_1" data-name="Layer 1" xmlns="http://www.w3.org/2000/svg" viewBox="0 0 109.67 96.09"><defs><style>.cls-1{fill:#831d81;}</style></defs><path class="cls-1" d="M24.23,61.68c-5.51,0-8-1.72-9.59-6.81A21.7,21.7,0,0,1,14.72,41c1.7-5,4.09-6.67,9.42-6.59.2-.59.45-1.21.65-1.86,5.67-18.79,21.73-27.41,40.7-21.85A38.9,38.9,0,0,1,93.58,48.85,15.71,15.71,0,0,0,100.25,62c2.49,1.89,5.13,3.61,7.7,5.4,1.34.94,2.32,2,1.11,3.67-1.08,1.47-2.36,1.06-3.65.15-3.42-2.4-7-4.65-10.25-7.22-1.3-1-2.09-2.7-3.1-4.05-1.72,3.47-3.52,7.06-5.31,10.67.1.09.23.29.34.28,8.41-1.3,14.35,4.37,21.1,7.65.69.34.75,2,1.11,3-1.13.28-2.52,1.12-3.34.74-3.79-1.75-7.29-4.17-11.15-5.69-2.47-1-5.39-.8-8.11-1.12a8.9,8.9,0,0,0-7.27,2.45,36.58,36.58,0,0,1-29.18,8.69C36.89,84.94,29,76.72,25,64.31,24.72,63.48,24.5,62.64,24.23,61.68ZM55.14,13.6c-2.33.29-4.7.41-7,.9C35.55,17.21,30.21,27.75,28.51,36.77a4.4,4.4,0,0,0,.87,2.55C32.43,44.53,33,50,30,55.24c-1.71,3-1.47,5.42-.49,8.31,3.36,10,9.66,16.75,20.35,18.37,19.8,3,37.44-11.53,39-31.9C90.4,30.9,74.68,14,55.14,13.6ZM27.33,48A11.43,11.43,0,0,0,24,40c-1.53-1.47-3-1.48-4,.5a15.6,15.6,0,0,0,0,15c1,2,2.29,2.05,4,.44A11.28,11.28,0,0,0,27.33,48Z"/><path class="cls-1" d="M8.47,60.62c1-.79,2.06-2.12,2.86-2A3.7,3.7,0,0,1,13.78,61c2.08,10.63,9,17.68,17.43,23.41,8.84,6,18.84,7.86,29.42,6.81a54.66,54.66,0,0,0,18-5.11c10.39-4.86,20.32-3.45,29.64,3,1.21.84,2,2.12.85,3.24a3.55,3.55,0,0,1-3.31.49c-4.52-2.77-9.15-5.4-14.58-5a31.63,31.63,0,0,0-11,2.6c-20.48,9.92-48.95,7.67-65.09-15.38a40.64,40.64,0,0,0-6-6.53,27.87,27.87,0,0,1,.32-41.47,54.72,54.72,0,0,0,6.88-7.83A48,48,0,0,1,76.22,5.1l.7.36c1.53.79,3.17,1.7,2,3.75-1,1.85-2.58,1.11-4.08.35C57.29.66,36.94,4,23.49,18a46,46,0,0,0-7.15,9c-1.48,2.63-1.59,6-2.56,9a4.78,4.78,0,0,1-2.2,2.79c-1.64.63-2.52-.85-2.45-3.75C2.76,42.18,3.21,53.58,8.47,60.62Z"/><path class="cls-1" d="M91,17.33a19.57,19.57,0,0,1,2.3,2.18,44.8,44.8,0,0,1,8.45,19.18c.85,4.82,2.56,9,6.67,12,1.25.89,1.74,2.33.53,3.3a3.64,3.64,0,0,1-3.38.15A18.23,18.23,0,0,1,97.7,41.65a46.59,46.59,0,0,0-8.09-19.6,5.31,5.31,0,0,1-.59-3.3C89.06,18.29,90.16,17.91,91,17.33Z"/><path class="cls-1" d="M84.76,16.62c-1.18-1.46-2.38-2.31-2.3-3,.12-.91,1.25-1.68,1.94-2.52.78.67,2.1,1.28,2.18,2S85.68,15,84.76,16.62Z"/><path class="cls-1" d="M69.8,36.37c-.66.78-1.15,1.88-1.93,2.16a4,4,0,0,1-3.16-.15c-.47-.32-.43-2.18.06-2.91.92-1.38,2.6-2.26,1.41-4.42-.2-.36.88-1.86,1.65-2.22a33,33,0,0,1,5.68-1.92c2-.53,3.41.88,2.88,3-.41,1.6-1,3.15-1.55,4.72C73.83,37.49,73.08,37.8,69.8,36.37Z"/><path class="cls-1" d="M69.9,59.67c3.2-1.39,4-1.07,5,1.85.54,1.56,1.13,3.11,1.53,4.71.52,2-.87,3.42-2.93,2.92-1.44-.36-2.83-.87-4.23-1.34-2.08-.7-4.17-1.37-2.69-4.37.19-.37-.53-1.33-1-1.85-1.13-1.2-2.33-2.49-.86-4s3-.46,4.19.82C69.23,58.76,69.53,59.2,69.9,59.67Z"/><path class="cls-1" d="M53.06,66.57c0-1.12-.28-2.19.07-3s1.31-2,2-2.08a2.9,2.9,0,0,1,2.19,1.87c.29,1.85,0,3.78,2.42,4.45a1.25,1.25,0,0,1,.54,1.09c-1.35,2.72-2.75,5.43-4.33,8a5.47,5.47,0,0,1-2.81-1.28A21.28,21.28,0,0,1,51,71.53C49.59,68.6,49.83,68,53.06,66.57Z"/><path class="cls-1" d="M76.59,42.62a63.08,63.08,0,0,1,7.17,4c1.38,1,.85,2.61-.57,3.44a31,31,0,0,1-5.83,2.81,3,3,0,0,1-2.72-1,2.33,2.33,0,0,0-2.78-1.57c-1.6.11-3.16-.19-3.23-2.13-.07-2.1,1.52-2.49,3.25-2.36,1.31.11,2.24-.1,2.72-1.61C74.79,43.55,75.83,43.19,76.59,42.62Z"/><path class="cls-1" d="M57.68,29.54c-.61,1.84,1,5.11-2.46,5.07-3.2,0-1.81-3.11-2.29-4.94-3.32-1.94-3.39-2.19-1.56-5.83.59-1.17,1.1-2.38,1.79-3.48,1.18-1.9,3.14-1.86,4.3.09.71,1.19,1.28,2.47,1.89,3.71C61,27.5,60.87,27.92,57.68,29.54Z"/></svg>