<svg id="Layer_1" data-name="Layer 1" xmlns="http://www.w3.org/2000/svg" viewBox="0 0 85.31 82.66"><defs><style>.cls-1{fill:#831d81;}</style></defs><path class="cls-1" d="M60.6,79.59c.44-1.93.85-3.82,1.32-5.69a77.75,77.75,0,0,1,3.89-12.18,36.59,36.59,0,0,1,2.14-4A2.48,2.48,0,0,1,71,56.58a6.9,6.9,0,0,1,3,1.63A13.49,13.49,0,0,0,83.93,62c.39,0,.79,0,1.19,0a.67.67,0,0,1,.19.06V82.66H0V62c.68,0,1.34,0,2,0a13.59,13.59,0,0,0,10.09-3.84,6.24,6.24,0,0,1,3.64-1.72,2,2,0,0,1,2,.82,22.82,22.82,0,0,1,1.89,3.09A69.33,69.33,0,0,1,24,73.24c.5,1.94.92,3.91,1.35,5.87.08.36.19.5.58.5H60.6Z"/><path class="cls-1" d="M26.61,78.1a94.76,94.76,0,0,0-5.25-17.54,19.66,19.66,0,0,1,5.39-3.4,16.21,16.21,0,0,0,0,2.7,8.7,8.7,0,0,0,3.6,5.41,17.92,17.92,0,0,0,7.89,3.34A23.19,23.19,0,0,0,52.56,67a12.75,12.75,0,0,0,4.83-3.72A7.16,7.16,0,0,0,59,57.39c0-.08,0-.15,0-.31a23.55,23.55,0,0,1,5.67,3.61A95.51,95.51,0,0,0,59.44,78.1Z"/><path class="cls-1" d="M60.41,0a10.88,10.88,0,0,0-.11,1.12q0,4.47,0,8.94c0,.48-.15.62-.62.62H26c-.48,0-.62-.16-.61-.62q0-4.44,0-8.88A9.67,9.67,0,0,0,25.3,0Z"/><path class="cls-1" d="M49.43,54.27c1.21.25,2.42.46,3.61.76s2.39.73,3.59,1.08a.91.91,0,0,1,.67.68,5.67,5.67,0,0,1-.5,4.77,10.25,10.25,0,0,1-4.32,3.85,20.6,20.6,0,0,1-9.85,2.17,20.47,20.47,0,0,1-9.49-2.22,10.6,10.6,0,0,1-3.91-3.31,5.77,5.77,0,0,1-.81-5.31.86.86,0,0,1,.4-.49,34.23,34.23,0,0,1,7.44-1.93c1.41,3.14,4.12,3.74,7.13,3.69a8.6,8.6,0,0,0,2.45-.44A5,5,0,0,0,49.43,54.27Z"/><path class="cls-1" d="M52.07,12.16v.54c0,3.91,0,7.82,0,11.73,0,.54-.14.72-.7.71q-8.57,0-17.13,0c-.38,0-.6-.05-.59-.52q0-6.12,0-12.24a1.34,1.34,0,0,1,0-.22Z"/><path class="cls-1" d="M47.77,26.63v.76c0,2.08,0,4.17,0,6.26,0,.43-.12.59-.58.59-2.88,0-5.77,0-8.65,0-.34,0-.57,0-.57-.49,0-2.27,0-4.55,0-6.82a2.07,2.07,0,0,1,0-.3Z"/><path class="cls-1" d="M41,35.72h3.63a29.66,29.66,0,0,1,0,3.27,1.84,1.84,0,0,1-3.58-.26C41,37.75,41,36.76,41,35.72Z"/><path class="cls-1" d="M42.19,41.71h1.33V52.33H42.19Z"/><path class="cls-1" d="M47.66,54.07c-1.2,1-1.89,2.47-3.71,2.38.81-.82,1.55-1.64,2.39-2.35C46.57,53.91,47.1,54.07,47.66,54.07Z"/><path class="cls-1" d="M44.38,53.9c-.85.87-1.63,1.72-2.48,2.47-.21.17-.7,0-1.06,0l-.07-.15,1-1a7.49,7.49,0,0,0,.84-.85C43.06,53.74,43.67,53.81,44.38,53.9Z"/><path class="cls-1" d="M40.94,54,39.2,55.67l-.71-.51C39.16,54.38,39.75,53.59,40.94,54Z"/></svg>